<mxfile host="app.diagrams.net" agent="Mozilla/5.0 (X11; Ubuntu; Linux x86_64; rv:135.0) Gecko/20100101 Firefox/135.0" version="26.0.15">
  <diagram name="Page-1" id="mjd2C5AzrDwt4v_iIRbr">
    <mxGraphModel dx="671" dy="385" grid="1" gridSize="10" guides="1" tooltips="1" connect="1" arrows="1" fold="1" page="1" pageScale="1" pageWidth="850" pageHeight="1100" math="0" shadow="0">
      <root>
        <mxCell id="0" />
        <mxCell id="1" parent="0" />
        <mxCell id="IfUJpyONkfVFdhe7oYS0-1" value="Sala" style="swimlane;fontStyle=0;childLayout=stackLayout;horizontal=1;startSize=26;fillColor=none;horizontalStack=0;resizeParent=1;resizeParentMax=0;resizeLast=0;collapsible=1;marginBottom=0;whiteSpace=wrap;html=1;" vertex="1" parent="1">
          <mxGeometry x="285" y="66" width="140" height="52" as="geometry" />
        </mxCell>
        <mxCell id="IfUJpyONkfVFdhe7oYS0-2" value="+ número" style="text;strokeColor=none;fillColor=none;align=left;verticalAlign=top;spacingLeft=4;spacingRight=4;overflow=hidden;rotatable=0;points=[[0,0.5],[1,0.5]];portConstraint=eastwest;whiteSpace=wrap;html=1;" vertex="1" parent="IfUJpyONkfVFdhe7oYS0-1">
          <mxGeometry y="26" width="140" height="26" as="geometry" />
        </mxCell>
        <mxCell id="IfUJpyONkfVFdhe7oYS0-5" value="Setor" style="swimlane;fontStyle=0;childLayout=stackLayout;horizontal=1;startSize=26;fillColor=none;horizontalStack=0;resizeParent=1;resizeParentMax=0;resizeLast=0;collapsible=1;marginBottom=0;whiteSpace=wrap;html=1;" vertex="1" parent="1">
          <mxGeometry x="470" y="66" width="140" height="52" as="geometry" />
        </mxCell>
        <mxCell id="IfUJpyONkfVFdhe7oYS0-6" value="+ nome" style="text;strokeColor=none;fillColor=none;align=left;verticalAlign=top;spacingLeft=4;spacingRight=4;overflow=hidden;rotatable=0;points=[[0,0.5],[1,0.5]];portConstraint=eastwest;whiteSpace=wrap;html=1;" vertex="1" parent="IfUJpyONkfVFdhe7oYS0-5">
          <mxGeometry y="26" width="140" height="26" as="geometry" />
        </mxCell>
        <mxCell id="IfUJpyONkfVFdhe7oYS0-13" value="Responsável " style="swimlane;fontStyle=0;childLayout=stackLayout;horizontal=1;startSize=26;fillColor=none;horizontalStack=0;resizeParent=1;resizeParentMax=0;resizeLast=0;collapsible=1;marginBottom=0;whiteSpace=wrap;html=1;" vertex="1" parent="1">
          <mxGeometry x="285" y="170" width="140" height="78" as="geometry" />
        </mxCell>
        <mxCell id="IfUJpyONkfVFdhe7oYS0-14" value="+ nome" style="text;strokeColor=none;fillColor=none;align=left;verticalAlign=top;spacingLeft=4;spacingRight=4;overflow=hidden;rotatable=0;points=[[0,0.5],[1,0.5]];portConstraint=eastwest;whiteSpace=wrap;html=1;" vertex="1" parent="IfUJpyONkfVFdhe7oYS0-13">
          <mxGeometry y="26" width="140" height="26" as="geometry" />
        </mxCell>
        <mxCell id="IfUJpyONkfVFdhe7oYS0-15" value="+ data de nascimento" style="text;strokeColor=none;fillColor=none;align=left;verticalAlign=top;spacingLeft=4;spacingRight=4;overflow=hidden;rotatable=0;points=[[0,0.5],[1,0.5]];portConstraint=eastwest;whiteSpace=wrap;html=1;" vertex="1" parent="IfUJpyONkfVFdhe7oYS0-13">
          <mxGeometry y="52" width="140" height="26" as="geometry" />
        </mxCell>
        <mxCell id="IfUJpyONkfVFdhe7oYS0-17" value="Lugar" style="swimlane;fontStyle=0;childLayout=stackLayout;horizontal=1;startSize=26;fillColor=none;horizontalStack=0;resizeParent=1;resizeParentMax=0;resizeLast=0;collapsible=1;marginBottom=0;whiteSpace=wrap;html=1;" vertex="1" parent="1">
          <mxGeometry x="660" y="66" width="140" height="52" as="geometry" />
        </mxCell>
        <mxCell id="IfUJpyONkfVFdhe7oYS0-18" value="+ número" style="text;strokeColor=none;fillColor=none;align=left;verticalAlign=top;spacingLeft=4;spacingRight=4;overflow=hidden;rotatable=0;points=[[0,0.5],[1,0.5]];portConstraint=eastwest;whiteSpace=wrap;html=1;" vertex="1" parent="IfUJpyONkfVFdhe7oYS0-17">
          <mxGeometry y="26" width="140" height="26" as="geometry" />
        </mxCell>
        <mxCell id="IfUJpyONkfVFdhe7oYS0-22" value="" style="endArrow=none;html=1;rounded=0;exitX=1;exitY=0.5;exitDx=0;exitDy=0;entryX=0;entryY=0.5;entryDx=0;entryDy=0;" edge="1" parent="1" source="IfUJpyONkfVFdhe7oYS0-2" target="IfUJpyONkfVFdhe7oYS0-6">
          <mxGeometry relative="1" as="geometry">
            <mxPoint x="430" y="105" as="sourcePoint" />
            <mxPoint x="470" y="106" as="targetPoint" />
          </mxGeometry>
        </mxCell>
        <mxCell id="IfUJpyONkfVFdhe7oYS0-23" value="1" style="resizable=0;html=1;whiteSpace=wrap;align=left;verticalAlign=bottom;" connectable="0" vertex="1" parent="IfUJpyONkfVFdhe7oYS0-22">
          <mxGeometry x="-1" relative="1" as="geometry" />
        </mxCell>
        <mxCell id="IfUJpyONkfVFdhe7oYS0-24" value="*" style="resizable=0;html=1;whiteSpace=wrap;align=right;verticalAlign=bottom;" connectable="0" vertex="1" parent="IfUJpyONkfVFdhe7oYS0-22">
          <mxGeometry x="1" relative="1" as="geometry" />
        </mxCell>
        <mxCell id="IfUJpyONkfVFdhe7oYS0-25" value="" style="endArrow=none;html=1;rounded=0;exitX=1;exitY=0.5;exitDx=0;exitDy=0;entryX=0;entryY=0.5;entryDx=0;entryDy=0;" edge="1" parent="1" target="IfUJpyONkfVFdhe7oYS0-18">
          <mxGeometry relative="1" as="geometry">
            <mxPoint x="610" y="104.78" as="sourcePoint" />
            <mxPoint x="655" y="104.78" as="targetPoint" />
          </mxGeometry>
        </mxCell>
        <mxCell id="IfUJpyONkfVFdhe7oYS0-26" value="1" style="resizable=0;html=1;whiteSpace=wrap;align=left;verticalAlign=bottom;" connectable="0" vertex="1" parent="IfUJpyONkfVFdhe7oYS0-25">
          <mxGeometry x="-1" relative="1" as="geometry" />
        </mxCell>
        <mxCell id="IfUJpyONkfVFdhe7oYS0-27" value="*" style="resizable=0;html=1;whiteSpace=wrap;align=right;verticalAlign=bottom;" connectable="0" vertex="1" parent="IfUJpyONkfVFdhe7oYS0-25">
          <mxGeometry x="1" relative="1" as="geometry" />
        </mxCell>
        <mxCell id="IfUJpyONkfVFdhe7oYS0-28" value="" style="endArrow=none;html=1;rounded=0;exitX=0.5;exitY=0;exitDx=0;exitDy=0;entryX=0.494;entryY=1.001;entryDx=0;entryDy=0;entryPerimeter=0;" edge="1" parent="1">
          <mxGeometry relative="1" as="geometry">
            <mxPoint x="354.84999999999997" y="170" as="sourcePoint" />
            <mxPoint x="354.15999999999985" y="118.02599999999995" as="targetPoint" />
          </mxGeometry>
        </mxCell>
        <mxCell id="IfUJpyONkfVFdhe7oYS0-29" value="1" style="resizable=0;html=1;whiteSpace=wrap;align=left;verticalAlign=bottom;" connectable="0" vertex="1" parent="IfUJpyONkfVFdhe7oYS0-28">
          <mxGeometry x="-1" relative="1" as="geometry" />
        </mxCell>
        <mxCell id="IfUJpyONkfVFdhe7oYS0-30" value="*" style="resizable=0;html=1;whiteSpace=wrap;align=right;verticalAlign=bottom;" connectable="0" vertex="1" parent="IfUJpyONkfVFdhe7oYS0-28">
          <mxGeometry x="1" relative="1" as="geometry">
            <mxPoint x="10" y="16" as="offset" />
          </mxGeometry>
        </mxCell>
        <mxCell id="IfUJpyONkfVFdhe7oYS0-31" value="Programação cultural" style="swimlane;fontStyle=0;childLayout=stackLayout;horizontal=1;startSize=26;fillColor=none;horizontalStack=0;resizeParent=1;resizeParentMax=0;resizeLast=0;collapsible=1;marginBottom=0;whiteSpace=wrap;html=1;" vertex="1" parent="1">
          <mxGeometry x="280" y="330" width="140" height="52" as="geometry" />
        </mxCell>
        <mxCell id="IfUJpyONkfVFdhe7oYS0-32" value="+ nome" style="text;strokeColor=none;fillColor=none;align=left;verticalAlign=top;spacingLeft=4;spacingRight=4;overflow=hidden;rotatable=0;points=[[0,0.5],[1,0.5]];portConstraint=eastwest;whiteSpace=wrap;html=1;" vertex="1" parent="IfUJpyONkfVFdhe7oYS0-31">
          <mxGeometry y="26" width="140" height="26" as="geometry" />
        </mxCell>
        <mxCell id="IfUJpyONkfVFdhe7oYS0-35" value="" style="endArrow=none;html=1;rounded=0;" edge="1" parent="1">
          <mxGeometry relative="1" as="geometry">
            <mxPoint x="420" y="370" as="sourcePoint" />
            <mxPoint x="480" y="370" as="targetPoint" />
          </mxGeometry>
        </mxCell>
        <mxCell id="IfUJpyONkfVFdhe7oYS0-36" value="1" style="resizable=0;html=1;whiteSpace=wrap;align=left;verticalAlign=bottom;" connectable="0" vertex="1" parent="IfUJpyONkfVFdhe7oYS0-35">
          <mxGeometry x="-1" relative="1" as="geometry" />
        </mxCell>
        <mxCell id="IfUJpyONkfVFdhe7oYS0-37" value="*" style="resizable=0;html=1;whiteSpace=wrap;align=right;verticalAlign=bottom;" connectable="0" vertex="1" parent="IfUJpyONkfVFdhe7oYS0-35">
          <mxGeometry x="1" relative="1" as="geometry" />
        </mxCell>
        <mxCell id="IfUJpyONkfVFdhe7oYS0-38" value="Espetáculo" style="swimlane;fontStyle=0;childLayout=stackLayout;horizontal=1;startSize=26;fillColor=none;horizontalStack=0;resizeParent=1;resizeParentMax=0;resizeLast=0;collapsible=1;marginBottom=0;whiteSpace=wrap;html=1;" vertex="1" parent="1">
          <mxGeometry x="480" y="317" width="140" height="160" as="geometry" />
        </mxCell>
        <mxCell id="IfUJpyONkfVFdhe7oYS0-39" value="+ nome" style="text;strokeColor=none;fillColor=none;align=left;verticalAlign=top;spacingLeft=4;spacingRight=4;overflow=hidden;rotatable=0;points=[[0,0.5],[1,0.5]];portConstraint=eastwest;whiteSpace=wrap;html=1;" vertex="1" parent="IfUJpyONkfVFdhe7oYS0-38">
          <mxGeometry y="26" width="140" height="26" as="geometry" />
        </mxCell>
        <mxCell id="IfUJpyONkfVFdhe7oYS0-40" value="+ descrição" style="text;strokeColor=none;fillColor=none;align=left;verticalAlign=top;spacingLeft=4;spacingRight=4;overflow=hidden;rotatable=0;points=[[0,0.5],[1,0.5]];portConstraint=eastwest;whiteSpace=wrap;html=1;" vertex="1" parent="IfUJpyONkfVFdhe7oYS0-38">
          <mxGeometry y="52" width="140" height="26" as="geometry" />
        </mxCell>
        <mxCell id="IfUJpyONkfVFdhe7oYS0-43" value="+ data" style="text;strokeColor=none;fillColor=none;align=left;verticalAlign=top;spacingLeft=4;spacingRight=4;overflow=hidden;rotatable=0;points=[[0,0.5],[1,0.5]];portConstraint=eastwest;whiteSpace=wrap;html=1;" vertex="1" parent="IfUJpyONkfVFdhe7oYS0-38">
          <mxGeometry y="78" width="140" height="26" as="geometry" />
        </mxCell>
        <mxCell id="IfUJpyONkfVFdhe7oYS0-44" value="+ hora início" style="text;strokeColor=none;fillColor=none;align=left;verticalAlign=top;spacingLeft=4;spacingRight=4;overflow=hidden;rotatable=0;points=[[0,0.5],[1,0.5]];portConstraint=eastwest;whiteSpace=wrap;html=1;" vertex="1" parent="IfUJpyONkfVFdhe7oYS0-38">
          <mxGeometry y="104" width="140" height="26" as="geometry" />
        </mxCell>
        <mxCell id="IfUJpyONkfVFdhe7oYS0-41" value="+ duração" style="text;strokeColor=none;fillColor=none;align=left;verticalAlign=top;spacingLeft=4;spacingRight=4;overflow=hidden;rotatable=0;points=[[0,0.5],[1,0.5]];portConstraint=eastwest;whiteSpace=wrap;html=1;" vertex="1" parent="IfUJpyONkfVFdhe7oYS0-38">
          <mxGeometry y="130" width="140" height="30" as="geometry" />
        </mxCell>
        <mxCell id="IfUJpyONkfVFdhe7oYS0-46" value="" style="endArrow=none;html=1;rounded=0;entryX=0.571;entryY=-0.009;entryDx=0;entryDy=0;entryPerimeter=0;exitX=0.5;exitY=1;exitDx=0;exitDy=0;" edge="1" parent="1" source="IfUJpyONkfVFdhe7oYS0-13">
          <mxGeometry relative="1" as="geometry">
            <mxPoint x="355" y="250" as="sourcePoint" />
            <mxPoint x="355.30000000000007" y="328.958" as="targetPoint" />
          </mxGeometry>
        </mxCell>
        <mxCell id="IfUJpyONkfVFdhe7oYS0-47" value="1" style="resizable=0;html=1;whiteSpace=wrap;align=left;verticalAlign=bottom;" connectable="0" vertex="1" parent="IfUJpyONkfVFdhe7oYS0-46">
          <mxGeometry x="-1" relative="1" as="geometry">
            <mxPoint y="17" as="offset" />
          </mxGeometry>
        </mxCell>
        <mxCell id="IfUJpyONkfVFdhe7oYS0-48" value="*" style="resizable=0;html=1;whiteSpace=wrap;align=right;verticalAlign=bottom;" connectable="0" vertex="1" parent="IfUJpyONkfVFdhe7oYS0-46">
          <mxGeometry x="1" relative="1" as="geometry">
            <mxPoint x="10" y="3" as="offset" />
          </mxGeometry>
        </mxCell>
        <mxCell id="IfUJpyONkfVFdhe7oYS0-52" value="" style="endArrow=none;html=1;rounded=0;entryX=0.5;entryY=0;entryDx=0;entryDy=0;exitX=0.817;exitY=1.01;exitDx=0;exitDy=0;exitPerimeter=0;" edge="1" parent="1" target="IfUJpyONkfVFdhe7oYS0-38">
          <mxGeometry relative="1" as="geometry">
            <mxPoint x="399.3799999999999" y="118.25999999999999" as="sourcePoint" />
            <mxPoint x="610" y="250" as="targetPoint" />
            <Array as="points">
              <mxPoint x="400" y="160" />
              <mxPoint x="550" y="160" />
            </Array>
          </mxGeometry>
        </mxCell>
        <mxCell id="IfUJpyONkfVFdhe7oYS0-53" value="1" style="resizable=0;html=1;whiteSpace=wrap;align=left;verticalAlign=bottom;" connectable="0" vertex="1" parent="IfUJpyONkfVFdhe7oYS0-52">
          <mxGeometry x="-1" relative="1" as="geometry">
            <mxPoint y="17" as="offset" />
          </mxGeometry>
        </mxCell>
        <mxCell id="IfUJpyONkfVFdhe7oYS0-54" value="*" style="resizable=0;html=1;whiteSpace=wrap;align=right;verticalAlign=bottom;" connectable="0" vertex="1" parent="IfUJpyONkfVFdhe7oYS0-52">
          <mxGeometry x="1" relative="1" as="geometry">
            <mxPoint x="9" as="offset" />
          </mxGeometry>
        </mxCell>
        <mxCell id="IfUJpyONkfVFdhe7oYS0-55" value="Artista" style="swimlane;fontStyle=0;childLayout=stackLayout;horizontal=1;startSize=26;fillColor=none;horizontalStack=0;resizeParent=1;resizeParentMax=0;resizeLast=0;collapsible=1;marginBottom=0;whiteSpace=wrap;html=1;" vertex="1" parent="1">
          <mxGeometry x="110" y="345" width="140" height="104" as="geometry" />
        </mxCell>
        <mxCell id="IfUJpyONkfVFdhe7oYS0-56" value="+ nome" style="text;strokeColor=none;fillColor=none;align=left;verticalAlign=top;spacingLeft=4;spacingRight=4;overflow=hidden;rotatable=0;points=[[0,0.5],[1,0.5]];portConstraint=eastwest;whiteSpace=wrap;html=1;" vertex="1" parent="IfUJpyONkfVFdhe7oYS0-55">
          <mxGeometry y="26" width="140" height="26" as="geometry" />
        </mxCell>
        <mxCell id="IfUJpyONkfVFdhe7oYS0-57" value="+ nacionalidade" style="text;strokeColor=none;fillColor=none;align=left;verticalAlign=top;spacingLeft=4;spacingRight=4;overflow=hidden;rotatable=0;points=[[0,0.5],[1,0.5]];portConstraint=eastwest;whiteSpace=wrap;html=1;" vertex="1" parent="IfUJpyONkfVFdhe7oYS0-55">
          <mxGeometry y="52" width="140" height="26" as="geometry" />
        </mxCell>
        <mxCell id="IfUJpyONkfVFdhe7oYS0-58" value="+ biografia" style="text;strokeColor=none;fillColor=none;align=left;verticalAlign=top;spacingLeft=4;spacingRight=4;overflow=hidden;rotatable=0;points=[[0,0.5],[1,0.5]];portConstraint=eastwest;whiteSpace=wrap;html=1;" vertex="1" parent="IfUJpyONkfVFdhe7oYS0-55">
          <mxGeometry y="78" width="140" height="26" as="geometry" />
        </mxCell>
        <mxCell id="IfUJpyONkfVFdhe7oYS0-59" value="registo bio" style="endArrow=none;html=1;rounded=0;exitX=0.5;exitY=0;exitDx=0;exitDy=0;" edge="1" parent="1" source="IfUJpyONkfVFdhe7oYS0-55">
          <mxGeometry relative="1" as="geometry">
            <mxPoint x="125" y="230" as="sourcePoint" />
            <mxPoint x="285" y="230" as="targetPoint" />
            <Array as="points">
              <mxPoint x="180" y="230" />
            </Array>
          </mxGeometry>
        </mxCell>
        <mxCell id="IfUJpyONkfVFdhe7oYS0-60" value="*" style="resizable=0;html=1;whiteSpace=wrap;align=left;verticalAlign=bottom;" connectable="0" vertex="1" parent="IfUJpyONkfVFdhe7oYS0-59">
          <mxGeometry x="-1" relative="1" as="geometry">
            <mxPoint x="-13" as="offset" />
          </mxGeometry>
        </mxCell>
        <mxCell id="IfUJpyONkfVFdhe7oYS0-61" value="1" style="resizable=0;html=1;whiteSpace=wrap;align=right;verticalAlign=bottom;" connectable="0" vertex="1" parent="IfUJpyONkfVFdhe7oYS0-59">
          <mxGeometry x="1" relative="1" as="geometry" />
        </mxCell>
        <mxCell id="IfUJpyONkfVFdhe7oYS0-62" value="" style="endArrow=none;html=1;rounded=0;entryX=-0.007;entryY=0.333;entryDx=0;entryDy=0;entryPerimeter=0;" edge="1" parent="1" target="IfUJpyONkfVFdhe7oYS0-44">
          <mxGeometry relative="1" as="geometry">
            <mxPoint x="250" y="430" as="sourcePoint" />
            <mxPoint x="410" y="430" as="targetPoint" />
          </mxGeometry>
        </mxCell>
        <mxCell id="IfUJpyONkfVFdhe7oYS0-63" value="*" style="resizable=0;html=1;whiteSpace=wrap;align=left;verticalAlign=bottom;" connectable="0" vertex="1" parent="IfUJpyONkfVFdhe7oYS0-62">
          <mxGeometry x="-1" relative="1" as="geometry" />
        </mxCell>
        <mxCell id="IfUJpyONkfVFdhe7oYS0-64" value="*" style="resizable=0;html=1;whiteSpace=wrap;align=right;verticalAlign=bottom;" connectable="0" vertex="1" parent="IfUJpyONkfVFdhe7oYS0-62">
          <mxGeometry x="1" relative="1" as="geometry" />
        </mxCell>
        <mxCell id="IfUJpyONkfVFdhe7oYS0-65" value="Cliente" style="swimlane;fontStyle=0;childLayout=stackLayout;horizontal=1;startSize=26;fillColor=none;horizontalStack=0;resizeParent=1;resizeParentMax=0;resizeLast=0;collapsible=1;marginBottom=0;whiteSpace=wrap;html=1;" vertex="1" parent="1">
          <mxGeometry x="300" y="490" width="140" height="130" as="geometry" />
        </mxCell>
        <mxCell id="IfUJpyONkfVFdhe7oYS0-66" value="+ nome" style="text;strokeColor=none;fillColor=none;align=left;verticalAlign=top;spacingLeft=4;spacingRight=4;overflow=hidden;rotatable=0;points=[[0,0.5],[1,0.5]];portConstraint=eastwest;whiteSpace=wrap;html=1;" vertex="1" parent="IfUJpyONkfVFdhe7oYS0-65">
          <mxGeometry y="26" width="140" height="26" as="geometry" />
        </mxCell>
        <mxCell id="IfUJpyONkfVFdhe7oYS0-67" value="+ nacionalidade" style="text;strokeColor=none;fillColor=none;align=left;verticalAlign=top;spacingLeft=4;spacingRight=4;overflow=hidden;rotatable=0;points=[[0,0.5],[1,0.5]];portConstraint=eastwest;whiteSpace=wrap;html=1;" vertex="1" parent="IfUJpyONkfVFdhe7oYS0-65">
          <mxGeometry y="52" width="140" height="26" as="geometry" />
        </mxCell>
        <mxCell id="IfUJpyONkfVFdhe7oYS0-68" value="+ morada" style="text;strokeColor=none;fillColor=none;align=left;verticalAlign=top;spacingLeft=4;spacingRight=4;overflow=hidden;rotatable=0;points=[[0,0.5],[1,0.5]];portConstraint=eastwest;whiteSpace=wrap;html=1;" vertex="1" parent="IfUJpyONkfVFdhe7oYS0-65">
          <mxGeometry y="78" width="140" height="26" as="geometry" />
        </mxCell>
        <mxCell id="IfUJpyONkfVFdhe7oYS0-69" value="+ email" style="text;strokeColor=none;fillColor=none;align=left;verticalAlign=top;spacingLeft=4;spacingRight=4;overflow=hidden;rotatable=0;points=[[0,0.5],[1,0.5]];portConstraint=eastwest;whiteSpace=wrap;html=1;" vertex="1" parent="IfUJpyONkfVFdhe7oYS0-65">
          <mxGeometry y="104" width="140" height="26" as="geometry" />
        </mxCell>
        <mxCell id="IfUJpyONkfVFdhe7oYS0-70" value="Bilhete" style="swimlane;fontStyle=0;childLayout=stackLayout;horizontal=1;startSize=26;fillColor=none;horizontalStack=0;resizeParent=1;resizeParentMax=0;resizeLast=0;collapsible=1;marginBottom=0;whiteSpace=wrap;html=1;" vertex="1" parent="1">
          <mxGeometry x="590" y="560" width="140" height="52" as="geometry" />
        </mxCell>
        <mxCell id="IfUJpyONkfVFdhe7oYS0-72" value="+ preço" style="text;strokeColor=none;fillColor=none;align=left;verticalAlign=top;spacingLeft=4;spacingRight=4;overflow=hidden;rotatable=0;points=[[0,0.5],[1,0.5]];portConstraint=eastwest;whiteSpace=wrap;html=1;" vertex="1" parent="IfUJpyONkfVFdhe7oYS0-70">
          <mxGeometry y="26" width="140" height="26" as="geometry" />
        </mxCell>
        <mxCell id="IfUJpyONkfVFdhe7oYS0-74" value="" style="endArrow=none;html=1;rounded=0;exitX=1;exitY=0.231;exitDx=0;exitDy=0;exitPerimeter=0;" edge="1" parent="1">
          <mxGeometry relative="1" as="geometry">
            <mxPoint x="440" y="600.5060000000001" as="sourcePoint" />
            <mxPoint x="590" y="600" as="targetPoint" />
          </mxGeometry>
        </mxCell>
        <mxCell id="IfUJpyONkfVFdhe7oYS0-75" value="1" style="resizable=0;html=1;whiteSpace=wrap;align=left;verticalAlign=bottom;" connectable="0" vertex="1" parent="IfUJpyONkfVFdhe7oYS0-74">
          <mxGeometry x="-1" relative="1" as="geometry" />
        </mxCell>
        <mxCell id="IfUJpyONkfVFdhe7oYS0-76" value="*" style="resizable=0;html=1;whiteSpace=wrap;align=right;verticalAlign=bottom;" connectable="0" vertex="1" parent="IfUJpyONkfVFdhe7oYS0-74">
          <mxGeometry x="1" relative="1" as="geometry">
            <mxPoint x="-1" y="3" as="offset" />
          </mxGeometry>
        </mxCell>
        <mxCell id="IfUJpyONkfVFdhe7oYS0-80" value="" style="endArrow=none;html=1;rounded=0;entryX=-0.002;entryY=0.201;entryDx=0;entryDy=0;exitX=0.486;exitY=0.983;exitDx=0;exitDy=0;exitPerimeter=0;entryPerimeter=0;" edge="1" parent="1" source="IfUJpyONkfVFdhe7oYS0-41" target="IfUJpyONkfVFdhe7oYS0-70">
          <mxGeometry relative="1" as="geometry">
            <mxPoint x="550" y="480" as="sourcePoint" />
            <mxPoint x="560" y="570" as="targetPoint" />
            <Array as="points">
              <mxPoint x="548" y="570" />
            </Array>
          </mxGeometry>
        </mxCell>
        <mxCell id="IfUJpyONkfVFdhe7oYS0-81" value="1" style="resizable=0;html=1;whiteSpace=wrap;align=left;verticalAlign=bottom;" connectable="0" vertex="1" parent="IfUJpyONkfVFdhe7oYS0-80">
          <mxGeometry x="-1" relative="1" as="geometry">
            <mxPoint y="18" as="offset" />
          </mxGeometry>
        </mxCell>
        <mxCell id="IfUJpyONkfVFdhe7oYS0-82" value="*" style="resizable=0;html=1;whiteSpace=wrap;align=right;verticalAlign=bottom;" connectable="0" vertex="1" parent="IfUJpyONkfVFdhe7oYS0-80">
          <mxGeometry x="1" relative="1" as="geometry">
            <mxPoint x="-1" y="3" as="offset" />
          </mxGeometry>
        </mxCell>
        <mxCell id="IfUJpyONkfVFdhe7oYS0-83" value="" style="endArrow=none;html=1;rounded=0;exitX=0.689;exitY=1.019;exitDx=0;exitDy=0;exitPerimeter=0;" edge="1" parent="1" target="IfUJpyONkfVFdhe7oYS0-70">
          <mxGeometry relative="1" as="geometry">
            <mxPoint x="566.46" y="118.49399999999991" as="sourcePoint" />
            <mxPoint x="700" y="250" as="targetPoint" />
            <Array as="points">
              <mxPoint x="566" y="200" />
              <mxPoint x="660" y="200" />
            </Array>
          </mxGeometry>
        </mxCell>
        <mxCell id="IfUJpyONkfVFdhe7oYS0-84" value="1" style="resizable=0;html=1;whiteSpace=wrap;align=left;verticalAlign=bottom;" connectable="0" vertex="1" parent="IfUJpyONkfVFdhe7oYS0-83">
          <mxGeometry x="-1" relative="1" as="geometry">
            <mxPoint x="-15" y="16" as="offset" />
          </mxGeometry>
        </mxCell>
        <mxCell id="IfUJpyONkfVFdhe7oYS0-85" value="*" style="resizable=0;html=1;whiteSpace=wrap;align=right;verticalAlign=bottom;" connectable="0" vertex="1" parent="IfUJpyONkfVFdhe7oYS0-83">
          <mxGeometry x="1" relative="1" as="geometry">
            <mxPoint x="-1" as="offset" />
          </mxGeometry>
        </mxCell>
        <mxCell id="IfUJpyONkfVFdhe7oYS0-86" value="" style="endArrow=none;html=1;rounded=0;entryX=0.857;entryY=0;entryDx=0;entryDy=0;entryPerimeter=0;exitX=0.354;exitY=1;exitDx=0;exitDy=0;exitPerimeter=0;" edge="1" parent="1" target="IfUJpyONkfVFdhe7oYS0-70">
          <mxGeometry relative="1" as="geometry">
            <mxPoint x="709.56" y="117.99999999999994" as="sourcePoint" />
            <mxPoint x="760" y="400" as="targetPoint" />
          </mxGeometry>
        </mxCell>
        <mxCell id="IfUJpyONkfVFdhe7oYS0-87" value="1" style="resizable=0;html=1;whiteSpace=wrap;align=left;verticalAlign=bottom;" connectable="0" vertex="1" parent="IfUJpyONkfVFdhe7oYS0-86">
          <mxGeometry x="-1" relative="1" as="geometry">
            <mxPoint y="17" as="offset" />
          </mxGeometry>
        </mxCell>
        <mxCell id="IfUJpyONkfVFdhe7oYS0-88" value="*" style="resizable=0;html=1;whiteSpace=wrap;align=right;verticalAlign=bottom;" connectable="0" vertex="1" parent="IfUJpyONkfVFdhe7oYS0-86">
          <mxGeometry x="1" relative="1" as="geometry">
            <mxPoint x="13" as="offset" />
          </mxGeometry>
        </mxCell>
        <mxCell id="IfUJpyONkfVFdhe7oYS0-89" value="Reserva" style="swimlane;fontStyle=0;childLayout=stackLayout;horizontal=1;startSize=26;fillColor=none;horizontalStack=0;resizeParent=1;resizeParentMax=0;resizeLast=0;collapsible=1;marginBottom=0;whiteSpace=wrap;html=1;" vertex="1" parent="1">
          <mxGeometry x="450" y="670" width="140" height="78" as="geometry" />
        </mxCell>
        <mxCell id="IfUJpyONkfVFdhe7oYS0-90" value="+ número" style="text;strokeColor=none;fillColor=none;align=left;verticalAlign=top;spacingLeft=4;spacingRight=4;overflow=hidden;rotatable=0;points=[[0,0.5],[1,0.5]];portConstraint=eastwest;whiteSpace=wrap;html=1;" vertex="1" parent="IfUJpyONkfVFdhe7oYS0-89">
          <mxGeometry y="26" width="140" height="26" as="geometry" />
        </mxCell>
        <mxCell id="IfUJpyONkfVFdhe7oYS0-91" value="+ data-hora limite" style="text;strokeColor=none;fillColor=none;align=left;verticalAlign=top;spacingLeft=4;spacingRight=4;overflow=hidden;rotatable=0;points=[[0,0.5],[1,0.5]];portConstraint=eastwest;whiteSpace=wrap;html=1;" vertex="1" parent="IfUJpyONkfVFdhe7oYS0-89">
          <mxGeometry y="52" width="140" height="26" as="geometry" />
        </mxCell>
        <mxCell id="IfUJpyONkfVFdhe7oYS0-96" value="" style="endArrow=none;dashed=1;html=1;rounded=0;exitX=0.5;exitY=0;exitDx=0;exitDy=0;" edge="1" parent="1" source="IfUJpyONkfVFdhe7oYS0-89">
          <mxGeometry width="50" height="50" relative="1" as="geometry">
            <mxPoint x="480" y="660" as="sourcePoint" />
            <mxPoint x="520" y="600" as="targetPoint" />
          </mxGeometry>
        </mxCell>
        <mxCell id="IfUJpyONkfVFdhe7oYS0-100" value="&lt;font style=&quot;font-size: 9px;&quot;&gt;Caso não haja reserva os valores serão por default nulos&lt;/font&gt;" style="shape=note;size=12;whiteSpace=wrap;html=1;" vertex="1" parent="1">
          <mxGeometry x="590" y="670" width="100" height="60" as="geometry" />
        </mxCell>
      </root>
    </mxGraphModel>
  </diagram>
</mxfile>
